<?xml version="1.0" standalone="no"?>
<!DOCTYPE svg PUBLIC "-//W3C//DTD SVG 1.1//EN" "http://www.w3.org/Graphics/SVG/1.1/DTD/svg11.dtd" >
<svg>
<metadata>
Created by FontForge 20090914 at Fri Sep 27 10:58:49 2013
 By www-data
Copyright (c) 2011 Matthew Desmond (http://www.madtype.com | mattdesmond@gmail.com), with Reserved Font Name "Quantico"
</metadata>
<defs>
<font id="Quantico-Regular" horiz-adv-x="585" >
  <font-face 
    font-family="Quantico"
    font-weight="400"
    font-stretch="normal"
    units-per-em="1000"
    panose-1="2 0 0 0 0 0 0 0 0 0"
    ascent="800"
    descent="-200"
    x-height="500"
    cap-height="700"
    bbox="-40 -335 1346 1033"
    underline-thickness="50"
    underline-position="-50"
    unicode-range="U+0020-U+FB08"
  />
<missing-glyph horiz-adv-x="260" 
 />
    <glyph glyph-name=".notdef" horiz-adv-x="260" 
 />
    <glyph glyph-name="space" unicode=" " horiz-adv-x="260" 
 />
    <glyph glyph-name="exclam" unicode="!" horiz-adv-x="350" 
d="M100 0v150h150v-150h-150zM135 268l-26 462h132l-26 -462h-80z" />
    <glyph glyph-name="quotedbl" unicode="&#x22;" horiz-adv-x="430" 
d="M90 438l-20 292h110l-20 -292h-70zM270 438l-20 292h110l-20 -292h-70z" />
    <glyph glyph-name="numbersign" unicode="#" horiz-adv-x="756" 
d="M426 -20l17 192h-176l-17 -192h-83l17 192h-124v76h131l19 212h-150v76h157l17 184h83l-17 -184h176l17 184h83l-17 -184h137v-76h-144l-19 -212h163v-76h-170l-17 -192h-83zM293 460l-19 -212h176l19 212h-176z" />
    <glyph glyph-name="dollar" unicode="$" horiz-adv-x="645" 
d="M276 -123v118h-80l-116 67v103h100v-80h275v218h-249l-116 67v268l116 67h70v118h100v-118h63l116 -67v-103h-100v80h-265v-212h249l116 -67v-274l-116 -67h-63v-118h-100z" />
    <glyph glyph-name="percent" unicode="%" horiz-adv-x="991" 
d="M425 424l-116 -67h-113l-116 67v219l116 67h113l116 -67v-219zM171 629v-191h163v191h-163zM707 710h90l-513 -720h-90zM566 276l116 67h113l116 -67v-219l-116 -67h-113l-116 67v219zM820 71v191h-163v-191h163z" />
    <glyph glyph-name="ampersand" unicode="&#x26;" horiz-adv-x="655" 
d="M625 407v-90h-74v-255l-116 -67h-229l-116 67v249l87 50v2l-87 50v225l116 67h189l116 -67v-113h-100v90h-221v-208h175v-90h-175v-232h261v255l116 67h58z" />
    <glyph glyph-name="quotesingle" unicode="'" horiz-adv-x="250" 
d="M90 438l-20 292h110l-20 -292h-70z" />
    <glyph glyph-name="parenleft" unicode="(" horiz-adv-x="363" 
d="M170 660v-790h133v-70h-97l-116 67v796l116 67h97v-70h-133z" />
    <glyph glyph-name="parenright" unicode=")" horiz-adv-x="363" 
d="M193 -130v790h-133v70h97l116 -67v-796l-116 -67h-97v70h133z" />
    <glyph glyph-name="asterisk" unicode="*" horiz-adv-x="630" 
d="M281 524l-10 186h88l-10 -186l173 67l28 -83l-179 -48l116 -143l-71 -53l-101 154l-101 -154l-71 53l116 143l-179 48l28 83z" />
    <glyph glyph-name="plus" unicode="+" horiz-adv-x="600" 
d="M50 297h203v203h94v-203h203v-94h-203v-203h-94v203h-203v94z" />
    <glyph glyph-name="comma" unicode="," horiz-adv-x="350" 
d="M100 -200v350h150v-42l-108 -308h-42z" />
    <glyph glyph-name="hyphen" unicode="-" horiz-adv-x="438" 
d="M70 218v87h298v-87h-298z" />
    <glyph glyph-name="period" unicode="." horiz-adv-x="350" 
d="M100 0v150h150v-150h-150z" />
    <glyph glyph-name="slash" unicode="/" horiz-adv-x="386" 
d="M30 -20l236 740h90l-236 -740h-90z" />
    <glyph glyph-name="zero" unicode="0" horiz-adv-x="665" 
d="M575 62l-116 -67h-253l-116 67v576l116 67h253l116 -67v-576zM190 615v-530h285v530h-285z" />
    <glyph glyph-name="one" unicode="1" horiz-adv-x="570" 
d="M90 490v101l190 109h80v-610h170v-90h-440v90h170v498z" />
    <glyph glyph-name="two" unicode="2" horiz-adv-x="630" 
d="M190 90h350v-90h-450v314l116 67h234v229h-250v-90h-100v113l116 67h218l116 -67v-275l-116 -67h-234v-201z" />
    <glyph glyph-name="three" unicode="3" horiz-adv-x="651" 
d="M445 -5h-239l-116 67v113h100v-90h271v232h-205v90h205v208h-271v-90h-100v113l116 67h239l116 -67v-225l-87 -50v-2l87 -50v-249z" />
    <glyph glyph-name="four" unicode="4" horiz-adv-x="624" 
d="M484 162v-162h-98v162h-346v86l352 452h92v-451h90v-87h-90zM144 249h242v308h-2l-240 -306v-2z" />
    <glyph glyph-name="five" unicode="5" horiz-adv-x="645" 
d="M210 610v-179h229l116 -67v-302l-116 -67h-233l-116 67v113h100v-90h265v256h-345v359h435v-90h-335z" />
    <glyph glyph-name="six" unicode="6" horiz-adv-x="635" 
d="M190 615v-246l71 41h168l116 -67v-281l-116 -67h-223l-116 67v576l116 67h223l116 -67v-113h-100v90h-255zM190 320v-235h255v235h-255z" />
    <glyph glyph-name="seven" unicode="7" horiz-adv-x="615" 
d="M273 0h-106l279 608v2h-286v-90h-100v180h505v-60z" />
    <glyph glyph-name="eight" unicode="8" horiz-adv-x="645" 
d="M190 85h265v232h-265v-232zM190 407h265v208h-265v-208zM439 -5h-249l-100 67v249l87 50v2l-87 50v225l116 67h233l116 -67v-225l-87 -50v-2l87 -50v-249z" />
    <glyph glyph-name="nine" unicode="9" horiz-adv-x="635" 
d="M445 85v246l-71 -41h-168l-116 67v281l116 67h223l116 -67v-576l-116 -67h-223l-116 67v113h100v-90h255zM445 380v235h-255v-235h255z" />
    <glyph glyph-name="colon" unicode=":" horiz-adv-x="350" 
d="M100 0v150h150v-150h-150zM100 350v150h150v-150h-150z" />
    <glyph glyph-name="semicolon" unicode=";" horiz-adv-x="350" 
d="M100 350v150h150v-150h-150zM100 -200v350h150v-42l-108 -308h-42z" />
    <glyph glyph-name="less" unicode="&#x3c;" horiz-adv-x="650" 
d="M560 501v-94l-403 -156v-2l403 -156v-94l-500 200v102z" />
    <glyph glyph-name="equal" unicode="=" horiz-adv-x="680" 
d="M590 183v-94h-500v94h500zM590 411v-94h-500v94h500z" />
    <glyph glyph-name="greater" unicode="&#x3e;" horiz-adv-x="650" 
d="M90 407v94l500 -200v-102l-500 -200v94l403 156v2z" />
    <glyph glyph-name="question" unicode="?" horiz-adv-x="580" 
d="M297 391l-9 -123h-80l-10 146l116 67h76v159h-200v-90h-100v113l116 67h168l116 -67v-205l-116 -67h-77zM173 0v150h150v-150h-150z" />
    <glyph glyph-name="at" unicode="@" horiz-adv-x="1010" 
d="M804 -141h-598l-116 67v712l116 67h598l116 -67v-534l-116 -67h-169l-66 41l-76 -41h-101l-109 67l39 366l123 67h101l66 -41l76 41h26l-44 -420h160v508h-650v-686h624v-80zM417 450l-35 -326h191l35 326h-191z" />
    <glyph glyph-name="A" unicode="A" horiz-adv-x="664" 
d="M394 700l250 -700h-98l-59 166h-310l-59 -166h-98l250 700h124zM331 601l-122 -345h246l-122 345h-2z" />
    <glyph glyph-name="B" unicode="B" horiz-adv-x="655" 
d="M565 413l-87 -50v-2l87 -50v-244l-116 -67h-359v700h359l116 -67v-220zM190 317v-227h275v227h-275zM190 610v-203h275v203h-275z" />
    <glyph glyph-name="C" unicode="C" horiz-adv-x="665" 
d="M485 175h100v-113l-116 -67h-263l-116 67v576l116 67h263l116 -67v-113h-100v90h-295v-530h295v90z" />
    <glyph glyph-name="D" unicode="D" horiz-adv-x="705" 
d="M615 67l-116 -67h-409v700h409l116 -67v-566zM190 610v-520h325v520h-325z" />
    <glyph glyph-name="E" unicode="E" horiz-adv-x="539" 
d="M190 315v-225h299v-90h-399v700h399v-90h-299v-205h239v-90h-239z" />
    <glyph glyph-name="F" unicode="F" horiz-adv-x="529" 
d="M190 315v-315h-100v700h409v-90h-309v-205h249v-90h-249z" />
    <glyph glyph-name="G" unicode="G" horiz-adv-x="675" 
d="M370 260v90h215v-288l-116 -67h-263l-116 67v576l116 67h263l116 -67v-113h-100v90h-295v-530h295v175h-115z" />
    <glyph glyph-name="H" unicode="H" horiz-adv-x="715" 
d="M190 315v-315h-100v700h100v-295h335v295h100v-700h-100v315h-335z" />
    <glyph glyph-name="I" unicode="I" horiz-adv-x="280" 
d="M90 0v700h100v-700h-100z" />
    <glyph glyph-name="J" unicode="J" horiz-adv-x="535" 
d="M345 85v615h100v-638l-116 -67h-193l-116 67v163h100v-140h225z" />
    <glyph glyph-name="K" unicode="K" horiz-adv-x="663" 
d="M90 0v700h100v-370h2l309 370h120l-275 -327l307 -373h-122l-246 301l-95 -113v-188h-100z" />
    <glyph glyph-name="L" unicode="L" horiz-adv-x="479" 
d="M90 0v700h100v-610h259v-90h-359z" />
    <glyph glyph-name="M" unicode="M" horiz-adv-x="885" 
d="M700 0v570h-2l-206 -570h-100l-205 570h-2v-570h-95v700h141l210 -584h2l211 584h141v-700h-95z" />
    <glyph glyph-name="N" unicode="N" horiz-adv-x="735" 
d="M190 529v-529h-100v700h91l362 -529h2v529h100v-700h-91l-362 529h-2z" />
    <glyph glyph-name="O" unicode="O" horiz-adv-x="705" 
d="M615 62l-116 -67h-293l-116 67v576l116 67h293l116 -67v-576zM190 615v-530h325v530h-325z" />
    <glyph glyph-name="P" unicode="P" horiz-adv-x="625" 
d="M90 0v700h349l116 -67v-297l-116 -67h-249v-269h-100zM190 610v-251h265v251h-265z" />
    <glyph glyph-name="Q" unicode="Q" horiz-adv-x="705" 
d="M190 615v-530h325v530h-325zM391 -5h-185l-116 67v576l116 67h293l116 -67v-576l-116 -67l113 -195h-111z" />
    <glyph glyph-name="R" unicode="R" horiz-adv-x="655" 
d="M341 279h-151v-279h-100v700h359l116 -67v-287l-116 -67l161 -279h-111zM190 610v-241h275v241h-275z" />
    <glyph glyph-name="S" unicode="S" horiz-adv-x="645" 
d="M90 370v268l116 67h233l116 -67v-103h-100v80h-265v-212h249l116 -67v-274l-116 -67h-243l-116 67v103h100v-80h275v218h-249z" />
    <glyph glyph-name="T" unicode="T" horiz-adv-x="558" 
d="M329 610v-610h-100v610h-199v90h498v-90h-199z" />
    <glyph glyph-name="U" unicode="U" horiz-adv-x="705" 
d="M515 700h100v-638l-116 -67h-293l-116 67v638h100v-605h325v605z" />
    <glyph glyph-name="V" unicode="V" horiz-adv-x="664" 
d="M644 700l-250 -700h-124l-250 700h101l210 -597h2l210 597h101z" />
    <glyph glyph-name="W" unicode="W" horiz-adv-x="956" 
d="M926 700l-180 -700h-119l-148 561h-2l-148 -561h-119l-180 700h97l142 -572h2l151 572h112l150 -572h2l143 572h97z" />
    <glyph glyph-name="X" unicode="X" horiz-adv-x="651" 
d="M30 0l240 357l-230 343h112l173 -260l174 260h112l-231 -343l241 -357h-112l-184 275l-183 -275h-112z" />
    <glyph glyph-name="Y" unicode="Y" horiz-adv-x="611" 
d="M255 0v309l-235 391h112l172 -298h2l173 298h112l-236 -392v-308h-100z" />
    <glyph glyph-name="Z" unicode="Z" 
d="M70 610v90h455v-60l-345 -548v-2h345v-90h-475v60l345 548v2h-325z" />
    <glyph glyph-name="bracketleft" unicode="[" horiz-adv-x="363" 
d="M170 660v-790h133v-70h-213v930h213v-70h-133z" />
    <glyph glyph-name="backslash" unicode="\" horiz-adv-x="386" 
d="M120 720l236 -740h-90l-236 740h90z" />
    <glyph glyph-name="bracketright" unicode="]" horiz-adv-x="363" 
d="M193 -130v790h-133v70h213v-930h-213v70h133z" />
    <glyph glyph-name="asciicircum" unicode="^" horiz-adv-x="602" 
d="M157 380h-107l200 320h102l200 -320h-107l-143 233h-1z" />
    <glyph glyph-name="underscore" unicode="_" horiz-adv-x="612" 
d="M632 -116v-84h-652v84h652z" />
    <glyph glyph-name="grave" unicode="`" horiz-adv-x="500" 
d="M315 718l94 -128h-80l-144 128h130z" />
    <glyph glyph-name="a" unicode="a" horiz-adv-x="535" 
d="M157 205v-123h201v123h-201zM176 -5l-116 67v163l116 67h182v121h-248v87h229l116 -67v-438h-26l-71 41l-71 -41h-111z" />
    <glyph glyph-name="b" unicode="b" horiz-adv-x="595" 
d="M248 505h151l116 -67v-376l-116 -67h-151l-71 41l-71 -41h-26v735h97v-266zM177 418v-336h241v336h-241z" />
    <glyph glyph-name="c" unicode="c" horiz-adv-x="515" 
d="M177 413v-326h278v-87h-259l-116 67v366l116 67h259v-87h-278z" />
    <glyph glyph-name="d" unicode="d" horiz-adv-x="595" 
d="M196 505h151l71 -41v266h97v-735h-73l-24 41l-71 -41h-151l-116 67v376zM418 82v336h-241v-336h241z" />
    <glyph glyph-name="e" unicode="e" horiz-adv-x="555" 
d="M475 87v-87h-279l-116 67v371l116 67h163l116 -67v-222h-298v-129h298zM177 418v-115h201v115h-201z" />
    <glyph glyph-name="f" unicode="f" horiz-adv-x="389" 
d="M40 413v87h92v163l116 67h101v-87h-120v-143h120v-87h-120v-413h-97v413h-92z" />
    <glyph glyph-name="g" unicode="g" horiz-adv-x="575" 
d="M177 0l-97 56v90l71 41l-71 41v205l116 67h319v-34l-91 -53l61 -36v-138l-116 -67h-192v-85h222l116 -67v-158l-116 -67h-223l-116 67v62l97 56v-100h261v120h-241zM177 415v-158h211v158h-211z" />
    <glyph glyph-name="h" unicode="h" horiz-adv-x="595" 
d="M177 0h-97v730h97v-266l71 41h151l116 -67v-438h-97v418h-241v-418z" />
    <glyph glyph-name="i" unicode="i" horiz-adv-x="257" 
d="M177 500v-500h-97v500h97zM75 623v107h107v-107h-107z" />
    <glyph glyph-name="j" unicode="j" horiz-adv-x="257" 
d="M75 623v107h107v-107h-107zM177 500v-633l-116 -67h-101v87h120v613h97z" />
    <glyph glyph-name="k" unicode="k" horiz-adv-x="531" 
d="M177 730v-479h2l206 249h116l-193 -226l223 -274h-119l-162 205l-73 -86v-119h-97v730h97z" />
    <glyph glyph-name="l" unicode="l" horiz-adv-x="317" 
d="M196 0l-116 67v663h97v-643h120v-87h-101z" />
    <glyph glyph-name="m" unicode="m" horiz-adv-x="833" 
d="M753 438v-438h-97v418h-191v-418h-97v418h-191v-418h-97v505h73l24 -41l71 41h101l93 -54l94 54h101z" />
    <glyph glyph-name="n" unicode="n" 
d="M505 438v-438h-97v418h-231v-418h-97v505h73l24 -41l71 41h141z" />
    <glyph glyph-name="o" unicode="o" 
d="M505 62l-116 -67h-193l-116 67v376l116 67h193l116 -67v-376zM177 418v-336h231v336h-231z" />
    <glyph glyph-name="p" unicode="p" horiz-adv-x="595" 
d="M399 -5h-151l-71 41v-236h-97v705h73l24 -41l71 41h151l116 -67v-376zM177 418v-336h241v336h-241z" />
    <glyph glyph-name="q" unicode="q" horiz-adv-x="595" 
d="M347 -5h-151l-116 67v376l116 67h151l71 -41l71 41h26v-705h-97v236zM418 82v336h-241v-336h241z" />
    <glyph glyph-name="r" unicode="r" horiz-adv-x="389" 
d="M359 413h-182v-413h-97v500h73l24 -41l71 41h111v-87z" />
    <glyph glyph-name="s" unicode="s" horiz-adv-x="536" 
d="M456 230v-163l-116 -67h-260v87h279v123h-163l-116 67v156l116 67h250v-87h-269v-116h163z" />
    <glyph glyph-name="t" unicode="t" horiz-adv-x="409" 
d="M40 413v87h92v84l97 56v-140h120v-87h-120v-326h120v-87h-101l-116 67v346h-92z" />
    <glyph glyph-name="u" unicode="u" 
d="M80 62v438h97v-418h231v418h97v-505h-73l-24 41l-71 -41h-141z" />
    <glyph glyph-name="v" unicode="v" horiz-adv-x="527" 
d="M115 500l147 -408h2l148 408h95l-185 -500h-117l-185 500h95z" />
    <glyph glyph-name="w" unicode="w" horiz-adv-x="757" 
d="M487 0l-108 382h-2l-107 -382h-115l-125 500h90l95 -391h2l110 391h103l110 -391h2l95 391h90l-125 -500h-115z" />
    <glyph glyph-name="x" unicode="x" horiz-adv-x="500" 
d="M20 0l179 255l-173 245h108l116 -172l116 172h108l-174 -245l180 -255h-105l-125 183l-125 -183h-105z" />
    <glyph glyph-name="y" unicode="y" horiz-adv-x="519" 
d="M126 -200l87 223l-193 477h97l142 -356h2l141 356h97l-278 -700h-95z" />
    <glyph glyph-name="z" unicode="z" horiz-adv-x="466" 
d="M40 66l252 345v2h-242v87h366v-66l-252 -345v-2h252v-87h-376v66z" />
    <glyph glyph-name="braceleft" unicode="{" horiz-adv-x="398" 
d="M205 225v-355h133v-70h-97l-116 67v363h-85v70h85v363l116 67h97v-70h-133v-355l-67 -39v-2z" />
    <glyph glyph-name="bar" unicode="|" horiz-adv-x="330" 
d="M120 -200v930h90v-930h-90z" />
    <glyph glyph-name="braceright" unicode="}" horiz-adv-x="398" 
d="M193 -130v355l67 39v2l-67 39v355h-133v70h97l116 -67v-363h85v-70h-85v-363l-116 -67h-97v70h133z" />
    <glyph glyph-name="asciitilde" unicode="~" horiz-adv-x="682" 
d="M252 270h-95v-82h-87v102l116 67h103l141 -82h95v82h87v-102l-116 -67h-103z" />
    <glyph glyph-name="uni00A0" unicode="&#xa0;" horiz-adv-x="260" 
 />
    <glyph glyph-name="exclamdown" unicode="&#xa1;" horiz-adv-x="350" 
d="M100 350v150h150v-150h-150zM109 -230l26 462h80l26 -462h-132z" />
    <glyph glyph-name="cent" unicode="&#xa2;" horiz-adv-x="515" 
d="M363 500h92v-87h-278v-326h278v-87h-92v-118h-96v118h-71l-116 67v366l116 67h71v118h96v-118z" />
    <glyph glyph-name="sterling" unicode="&#xa3;" horiz-adv-x="642" 
d="M356 365v-74h-139v-201h275v90h100v-113l-116 -67h-359v291h-77v74h77v273l116 67h193l116 -67v-113h-100v90h-225v-250h139z" />
    <glyph glyph-name="yen" unicode="&#xa5;" horiz-adv-x="651" 
d="M77 303v74h157l-194 323h112l172 -298h2l173 298h112l-195 -323h157v-74h-198v-81h198v-74h-198v-148h-100v148h-198v74h198v81h-198z" />
    <glyph glyph-name="brokenbar" unicode="&#xa6;" horiz-adv-x="330" 
d="M120 -200v402h90v-402h-90zM120 328v402h90v-402h-90z" />
    <glyph glyph-name="section" unicode="&#xa7;" horiz-adv-x="653" 
d="M445 163v179h-227v-179h227zM118 336l87 50v2l-87 50v200l116 67h213l116 -67v-103h-100v80h-245v-183h211l116 -67v-196l-87 -50v-2l87 -50v-200l-116 -67h-223l-116 67v103h100v-80h255v183h-211l-116 67v196z" />
    <glyph glyph-name="dieresis" unicode="&#xa8;" horiz-adv-x="544" 
d="M110 595v105h105v-105h-105zM329 595v105h105v-105h-105z" />
    <glyph glyph-name="copyright" unicode="&#xa9;" horiz-adv-x="840" 
d="M750 62l-116 -67h-428l-116 67v576l116 67h428l116 -67v-576zM170 635v-570h500v570h-500zM517 251h69v-74l-73 -42h-186l-74 42v346l74 42h186l73 -42v-74h-69v53h-195v-304h195v53z" />
    <glyph glyph-name="ordfeminine" unicode="&#xaa;" horiz-adv-x="545" 
d="M157 405v-123h201v123h-201zM176 195l-116 67v163l116 67h182v121h-248v87h229l116 -67v-438h-26l-71 41l-71 -41h-111zM60 0v87h395v-87h-395z" />
    <glyph glyph-name="guillemotleft" unicode="&#xab;" horiz-adv-x="680" 
d="M340 107v-107l-250 200v102l250 200v-107l-183 -143v-1zM590 107v-107l-250 200v102l250 200v-107l-183 -143v-1z" />
    <glyph glyph-name="registered" unicode="&#xae;" horiz-adv-x="840" 
d="M750 62l-116 -67h-428l-116 67v576l116 67h428l116 -67v-576zM170 635v-570h500v570h-500zM437 303h-106v-165h-69v424h241l74 -42v-174l-68 -40l99 -168h-77zM331 499v-133h177v133h-177z" />
    <glyph glyph-name="macron" unicode="&#xaf;" horiz-adv-x="599" 
d="M144 600v67h311v-67h-311z" />
    <glyph glyph-name="degree" unicode="&#xb0;" horiz-adv-x="505" 
d="M425 424l-116 -67h-113l-116 67v219l116 67h113l116 -67v-219zM171 629v-191h163v191h-163z" />
    <glyph glyph-name="plusminus" unicode="&#xb1;" horiz-adv-x="680" 
d="M90 367h203v133h94v-133h203v-94h-203v-133h-94v133h-203v94zM590 94v-94h-500v94h500z" />
    <glyph glyph-name="acute" unicode="&#xb4;" horiz-adv-x="500" 
d="M185 590l94 128h130l-144 -128h-80z" />
    <glyph glyph-name="mu" unicode="&#xb5;" horiz-adv-x="612" 
d="M432 0l-24 41l-71 -41h-160v-158h-97v658h97v-413h231v413h97v-413h87v-87h-160z" />
    <glyph glyph-name="paragraph" unicode="&#xb6;" horiz-adv-x="685" 
d="M498 -200v813h-97v-813h-97v449h-128l-116 67v317l116 67h419v-900h-97z" />
    <glyph glyph-name="periodcentered" unicode="&#xb7;" horiz-adv-x="350" 
d="M100 284v150h150v-150h-150z" />
    <glyph glyph-name="cedilla" unicode="&#xb8;" horiz-adv-x="578" 
d="M269 0h54l-22 -37l66 -38v-74l-86 -50h-70v50h99v65h-89z" />
    <glyph glyph-name="ordmasculine" unicode="&#xba;" horiz-adv-x="605" 
d="M515 262l-116 -67h-193l-116 67v376l116 67h193l116 -67v-376zM187 618v-336h231v336h-231zM90 0v87h425v-87h-425z" />
    <glyph glyph-name="guillemotright" unicode="&#xbb;" horiz-adv-x="680" 
d="M340 0v107l183 144v1l-183 143v107l250 -200v-102zM90 0v107l183 144v1l-183 143v107l250 -200v-102z" />
    <glyph glyph-name="questiondown" unicode="&#xbf;" horiz-adv-x="580" 
d="M283 109l9 123h80l10 -146l-116 -67h-76v-159h200v90h100v-113l-116 -67h-168l-116 67v205l116 67h77zM407 500v-150h-150v150h150z" />
    <glyph glyph-name="Agrave" unicode="&#xc0;" horiz-adv-x="664" 
d="M394 700l250 -700h-98l-59 166h-310l-59 -166h-98l250 700h124zM331 601l-122 -345h246l-122 345h-2zM318 908l94 -128h-80l-144 128h130z" />
    <glyph glyph-name="Aacute" unicode="&#xc1;" horiz-adv-x="664" 
d="M394 700l250 -700h-98l-59 166h-310l-59 -166h-98l250 700h124zM331 601l-122 -345h246l-122 345h-2zM245 780l94 128h130l-144 -128h-80z" />
    <glyph glyph-name="Acircumflex" unicode="&#xc2;" horiz-adv-x="664" 
d="M394 700l250 -700h-98l-59 166h-310l-59 -166h-98l250 700h124zM331 601l-122 -345h246l-122 345h-2zM277 918h110l101 -138h-75l-81 80l-80 -80h-75z" />
    <glyph glyph-name="Atilde" unicode="&#xc3;" horiz-adv-x="664" 
d="M394 700l250 -700h-98l-59 166h-310l-59 -166h-98l250 700h124zM331 601l-122 -345h246l-122 345h-2zM249 857h-2v-82h-68v94l94 55l142 -82h2v82h68v-94l-94 -55z" />
    <glyph glyph-name="Adieresis" unicode="&#xc4;" horiz-adv-x="664" 
d="M394 700l250 -700h-98l-59 166h-310l-59 -166h-98l250 700h124zM331 601l-122 -345h246l-122 345h-2zM170 785v105h105v-105h-105zM389 785v105h105v-105h-105z" />
    <glyph glyph-name="Aring" unicode="&#xc5;" horiz-adv-x="664" 
d="M475 682l-62 -36l231 -646h-98l-59 166h-310l-59 -166h-98l231 647l-61 35v169l82 47h121l82 -47v-169zM331 601l-122 -345h246l-122 345h-2zM265 833v-133h135v133h-135z" />
    <glyph glyph-name="AE" unicode="&#xc6;" horiz-adv-x="968" 
d="M619 315v-225h299v-90h-399v166h-306l-115 -166h-118l490 700h448v-90h-299v-205h239v-90h-239zM517 601l-241 -345h243v345h-2z" />
    <glyph glyph-name="Ccedilla" unicode="&#xc7;" horiz-adv-x="665" 
d="M485 175h100v-113l-116 -67h-106l-19 -32l66 -38v-74l-86 -50h-70v50h99v65h-89l45 79h-103l-116 67v576l116 67h263l116 -67v-113h-100v90h-295v-530h295v90z" />
    <glyph glyph-name="Egrave" unicode="&#xc8;" horiz-adv-x="539" 
d="M190 315v-225h299v-90h-399v700h399v-90h-299v-205h239v-90h-239zM255 908l94 -128h-80l-144 128h130z" />
    <glyph glyph-name="Eacute" unicode="&#xc9;" horiz-adv-x="539" 
d="M190 315v-225h299v-90h-399v700h399v-90h-299v-205h239v-90h-239zM225 780l94 128h130l-144 -128h-80z" />
    <glyph glyph-name="Ecircumflex" unicode="&#xca;" horiz-adv-x="539" 
d="M190 315v-225h299v-90h-399v700h399v-90h-299v-205h239v-90h-239zM236 918h110l101 -138h-75l-81 80l-80 -80h-75z" />
    <glyph glyph-name="Edieresis" unicode="&#xcb;" horiz-adv-x="539" 
d="M190 315v-225h299v-90h-399v700h399v-90h-299v-205h239v-90h-239zM130 785v105h105v-105h-105zM349 785v105h105v-105h-105z" />
    <glyph glyph-name="Igrave" unicode="&#xcc;" horiz-adv-x="280" 
d="M90 0v700h100v-700h-100zM121 908l94 -128h-80l-144 128h130z" />
    <glyph glyph-name="Iacute" unicode="&#xcd;" horiz-adv-x="280" 
d="M90 0v700h100v-700h-100zM65 780l94 128h130l-144 -128h-80z" />
    <glyph glyph-name="Icircumflex" unicode="&#xce;" horiz-adv-x="280" 
d="M90 0v700h100v-700h-100zM85 918h110l101 -138h-75l-81 80l-80 -80h-75z" />
    <glyph glyph-name="Idieresis" unicode="&#xcf;" horiz-adv-x="280" 
d="M90 0v700h100v-700h-100zM-22 785v105h105v-105h-105zM197 785v105h105v-105h-105z" />
    <glyph glyph-name="Eth" unicode="&#xd0;" horiz-adv-x="705" 
d="M20 291v74h70v335h409l116 -67v-566l-116 -67h-409v291h-70zM190 610v-245h106v-74h-106v-201h325v520h-325z" />
    <glyph glyph-name="Ntilde" unicode="&#xd1;" horiz-adv-x="735" 
d="M190 529v-529h-100v700h91l362 -529h2v529h100v-700h-91l-362 529h-2zM276 857h-2v-82h-68v94l94 55l142 -82h2v82h68v-94l-94 -55z" />
    <glyph glyph-name="Ograve" unicode="&#xd2;" horiz-adv-x="705" 
d="M615 62l-116 -67h-293l-116 67v576l116 67h293l116 -67v-576zM190 615v-530h325v530h-325zM325 908l94 -128h-80l-144 128h130z" />
    <glyph glyph-name="Oacute" unicode="&#xd3;" horiz-adv-x="705" 
d="M615 62l-116 -67h-293l-116 67v576l116 67h293l116 -67v-576zM190 615v-530h325v530h-325zM278 780l94 128h130l-144 -128h-80z" />
    <glyph glyph-name="Ocircumflex" unicode="&#xd4;" horiz-adv-x="705" 
d="M615 62l-116 -67h-293l-116 67v576l116 67h293l116 -67v-576zM190 615v-530h325v530h-325zM297 918h110l101 -138h-75l-81 80l-80 -80h-75z" />
    <glyph glyph-name="Otilde" unicode="&#xd5;" horiz-adv-x="705" 
d="M615 62l-116 -67h-293l-116 67v576l116 67h293l116 -67v-576zM190 615v-530h325v530h-325zM270 857h-2v-82h-68v94l94 55l142 -82h2v82h68v-94l-94 -55z" />
    <glyph glyph-name="Odieresis" unicode="&#xd6;" horiz-adv-x="705" 
d="M615 62l-116 -67h-293l-116 67v576l116 67h293l116 -67v-576zM190 615v-530h325v530h-325zM196 785v105h105v-105h-105zM415 785v105h105v-105h-105z" />
    <glyph glyph-name="multiply" unicode="&#xd7;" horiz-adv-x="610" 
d="M126 495l179 -179l179 179l66 -66l-179 -179l179 -179l-66 -66l-179 179l-179 -179l-66 66l179 179l-179 179z" />
    <glyph glyph-name="Oslash" unicode="&#xd8;" horiz-adv-x="705" 
d="M615 62l-116 -67h-293l-116 67v576l116 67h293l116 -67v-576zM190 615v-465l285 465h-285zM230 85h285v465z" />
    <glyph glyph-name="Ugrave" unicode="&#xd9;" horiz-adv-x="705" 
d="M515 700h100v-638l-116 -67h-293l-116 67v638h100v-605h325v605zM305 908l94 -128h-80l-144 128h130z" />
    <glyph glyph-name="Uacute" unicode="&#xda;" horiz-adv-x="705" 
d="M515 700h100v-638l-116 -67h-293l-116 67v638h100v-605h325v605zM295 780l94 128h130l-144 -128h-80z" />
    <glyph glyph-name="Ucircumflex" unicode="&#xdb;" horiz-adv-x="705" 
d="M515 700h100v-638l-116 -67h-293l-116 67v638h100v-605h325v605zM297 918h110l101 -138h-75l-81 80l-80 -80h-75z" />
    <glyph glyph-name="Udieresis" unicode="&#xdc;" horiz-adv-x="705" 
d="M515 700h100v-638l-116 -67h-293l-116 67v638h100v-605h325v605zM190 785v105h105v-105h-105zM409 785v105h105v-105h-105z" />
    <glyph glyph-name="Yacute" unicode="&#xdd;" horiz-adv-x="611" 
d="M255 0v309l-235 391h112l172 -298h2l173 298h112l-236 -392v-308h-100zM255 780l94 128h130l-144 -128h-80z" />
    <glyph glyph-name="Thorn" unicode="&#xde;" horiz-adv-x="635" 
d="M90 0v730h100v-143h249l116 -67v-297l-116 -67h-249v-156h-100zM190 497v-251h265v251h-265z" />
    <glyph glyph-name="germandbls" unicode="&#xdf;" horiz-adv-x="665" 
d="M30 317v90h90v226l116 67h203l116 -67v-220l-74 -43l104 -59v-244l-116 -67h-176v90h192v227h-192v90h162v203h-235v-810h-100v517h-90z" />
    <glyph glyph-name="agrave" unicode="&#xe0;" horiz-adv-x="535" 
d="M157 205v-123h201v123h-201zM176 -5l-116 67v163l116 67h182v121h-248v87h229l116 -67v-438h-26l-71 41l-71 -41h-111zM265 718l94 -128h-80l-144 128h130z" />
    <glyph glyph-name="aacute" unicode="&#xe1;" horiz-adv-x="535" 
d="M157 205v-123h201v123h-201zM176 -5l-116 67v163l116 67h182v121h-248v87h229l116 -67v-438h-26l-71 41l-71 -41h-111zM185 590l94 128h130l-144 -128h-80z" />
    <glyph glyph-name="acircumflex" unicode="&#xe2;" horiz-adv-x="535" 
d="M157 205v-123h201v123h-201zM176 -5l-116 67v163l116 67h182v121h-248v87h229l116 -67v-438h-26l-71 41l-71 -41h-111zM210 728h110l101 -138h-75l-81 80l-80 -80h-75z" />
    <glyph glyph-name="atilde" unicode="&#xe3;" horiz-adv-x="535" 
d="M157 205v-123h201v123h-201zM176 -5l-116 67v163l116 67h182v121h-248v87h229l116 -67v-438h-26l-71 41l-71 -41h-111zM180 667h-2v-82h-68v94l94 55l142 -82h2v82h68v-94l-94 -55z" />
    <glyph glyph-name="adieresis" unicode="&#xe4;" horiz-adv-x="535" 
d="M157 205v-123h201v123h-201zM176 -5l-116 67v163l116 67h182v121h-248v87h229l116 -67v-438h-26l-71 41l-71 -41h-111zM110 595v105h105v-105h-105zM329 595v105h105v-105h-105z" />
    <glyph glyph-name="aring" unicode="&#xe5;" horiz-adv-x="535" 
d="M157 205v-123h201v123h-201zM176 -5l-116 67v163l116 67h182v121h-248v87h229l116 -67v-438h-26l-71 41l-71 -41h-111zM407 617l-82 -47h-121l-82 47v169l82 47h121l82 -47v-169zM197 768v-133h135v133h-135z" />
    <glyph glyph-name="ae" unicode="&#xe6;" horiz-adv-x="833" 
d="M753 87v-87h-279l-90 52l-97 -57h-111l-116 67v163l116 67h182v121h-248v87h229l63 -37l72 42h163l116 -67v-222h-298v-129h298zM157 205v-123h201v123h-201zM455 418v-115h201v115h-201z" />
    <glyph glyph-name="ccedilla" unicode="&#xe7;" horiz-adv-x="515" 
d="M269 0h-73l-116 67v366l116 67h259v-87h-278v-326h278v-87h-132l-22 -37l66 -38v-74l-86 -50h-70v50h99v65h-89z" />
    <glyph glyph-name="egrave" unicode="&#xe8;" horiz-adv-x="555" 
d="M475 87v-87h-279l-116 67v371l116 67h163l116 -67v-222h-298v-129h298zM177 418v-115h201v115h-201zM285 718l94 -128h-80l-144 128h130z" />
    <glyph glyph-name="eacute" unicode="&#xe9;" horiz-adv-x="555" 
d="M475 87v-87h-279l-116 67v371l116 67h163l116 -67v-222h-298v-129h298zM177 418v-115h201v115h-201zM185 590l94 128h130l-144 -128h-80z" />
    <glyph glyph-name="ecircumflex" unicode="&#xea;" horiz-adv-x="555" 
d="M475 87v-87h-279l-116 67v371l116 67h163l116 -67v-222h-298v-129h298zM177 418v-115h201v115h-201zM227 728h110l101 -138h-75l-81 80l-80 -80h-75z" />
    <glyph glyph-name="edieresis" unicode="&#xeb;" horiz-adv-x="555" 
d="M475 87v-87h-279l-116 67v371l116 67h163l116 -67v-222h-298v-129h298zM177 418v-115h201v115h-201zM113 595v105h105v-105h-105zM332 595v105h105v-105h-105z" />
    <glyph glyph-name="igrave" unicode="&#xec;" horiz-adv-x="257" 
d="M177 500v-500h-97v500h97zM103 718l94 -128h-80l-144 128h130z" />
    <glyph glyph-name="iacute" unicode="&#xed;" horiz-adv-x="257" 
d="M177 500v-500h-97v500h97zM60 590l94 128h130l-144 -128h-80z" />
    <glyph glyph-name="icircumflex" unicode="&#xee;" horiz-adv-x="257" 
d="M177 500v-500h-97v500h97zM73 728h110l101 -138h-75l-81 80l-80 -80h-75z" />
    <glyph glyph-name="idieresis" unicode="&#xef;" horiz-adv-x="257" 
d="M177 500v-500h-97v500h97zM-33 595v105h105v-105h-105zM186 595v105h105v-105h-105z" />
    <glyph glyph-name="eth" unicode="&#xf0;" horiz-adv-x="635" 
d="M340 487v74h106v54h-239v90h223l116 -67v-77h70v-74h-70v-425l-116 -67h-223l-116 67v301l116 67h168l71 -41v98h-106zM446 85v255h-255v-255h255z" />
    <glyph glyph-name="ntilde" unicode="&#xf1;" 
d="M505 438v-438h-97v418h-231v-418h-97v505h73l24 -41l71 41h141zM209 667h-2v-82h-68v94l94 55l142 -82h2v82h68v-94l-94 -55z" />
    <glyph glyph-name="ograve" unicode="&#xf2;" 
d="M505 62l-116 -67h-193l-116 67v376l116 67h193l116 -67v-376zM177 418v-336h231v336h-231zM292 718l94 -128h-80l-144 128h130z" />
    <glyph glyph-name="oacute" unicode="&#xf3;" 
d="M505 62l-116 -67h-193l-116 67v376l116 67h193l116 -67v-376zM177 418v-336h231v336h-231zM218 590l94 128h130l-144 -128h-80z" />
    <glyph glyph-name="ocircumflex" unicode="&#xf4;" 
d="M505 62l-116 -67h-193l-116 67v376l116 67h193l116 -67v-376zM177 418v-336h231v336h-231zM240 728h110l101 -138h-75l-81 80l-80 -80h-75z" />
    <glyph glyph-name="otilde" unicode="&#xf5;" 
d="M505 62l-116 -67h-193l-116 67v376l116 67h193l116 -67v-376zM177 418v-336h231v336h-231zM213 667h-2v-82h-68v94l94 55l142 -82h2v82h68v-94l-94 -55z" />
    <glyph glyph-name="odieresis" unicode="&#xf6;" 
d="M505 62l-116 -67h-193l-116 67v376l116 67h193l116 -67v-376zM177 418v-336h231v336h-231zM131 595v105h105v-105h-105zM350 595v105h105v-105h-105z" />
    <glyph glyph-name="divide" unicode="&#xf7;" horiz-adv-x="600" 
d="M550 297v-94h-500v94h500zM235 -10v130h130v-130h-130zM235 380v130h130v-130h-130z" />
    <glyph glyph-name="oslash" unicode="&#xf8;" 
d="M505 62l-116 -67h-193l-116 67v376l116 67h193l116 -67v-376zM177 418v-278l191 278h-191zM217 82h191v278z" />
    <glyph glyph-name="ugrave" unicode="&#xf9;" 
d="M80 62v438h97v-418h231v418h97v-505h-73l-24 41l-71 -41h-141zM275 718l94 -128h-80l-144 128h130z" />
    <glyph glyph-name="uacute" unicode="&#xfa;" 
d="M80 62v438h97v-418h231v418h97v-505h-73l-24 41l-71 -41h-141zM235 590l94 128h130l-144 -128h-80z" />
    <glyph glyph-name="ucircumflex" unicode="&#xfb;" 
d="M80 62v438h97v-418h231v418h97v-505h-73l-24 41l-71 -41h-141zM238 728h110l101 -138h-75l-81 80l-80 -80h-75z" />
    <glyph glyph-name="udieresis" unicode="&#xfc;" 
d="M80 62v438h97v-418h231v418h97v-505h-73l-24 41l-71 -41h-141zM130 595v105h105v-105h-105zM349 595v105h105v-105h-105z" />
    <glyph glyph-name="yacute" unicode="&#xfd;" horiz-adv-x="519" 
d="M126 -200l87 223l-193 477h97l142 -356h2l141 356h97l-278 -700h-95zM195 590l94 128h130l-144 -128h-80z" />
    <glyph glyph-name="thorn" unicode="&#xfe;" horiz-adv-x="595" 
d="M80 730h97v-266l71 41h151l116 -67v-376l-116 -67h-151l-71 41v-236h-97v930zM177 418v-336h241v336h-241z" />
    <glyph glyph-name="ydieresis" unicode="&#xff;" horiz-adv-x="519" 
d="M126 -200l87 223l-193 477h97l142 -356h2l141 356h97l-278 -700h-95zM98 595v105h105v-105h-105zM317 595v105h105v-105h-105z" />
    <glyph glyph-name="hbar" unicode="&#x127;" horiz-adv-x="595" 
d="M177 0h-97v585h-70v74h70v71h97v-71h149v-74h-149v-121l71 41h151l116 -67v-438h-97v418h-241v-418z" />
    <glyph glyph-name="Itilde" unicode="&#x128;" horiz-adv-x="280" 
d="M90 0v700h100v-700h-100zM57 867h-2v-82h-68v94l94 55l142 -82h2v82h68v-94l-94 -55z" />
    <glyph glyph-name="itilde" unicode="&#x129;" horiz-adv-x="257" 
d="M177 500v-500h-97v500h97zM46 667h-2v-82h-68v94l94 55l142 -82h2v82h68v-94l-94 -55z" />
    <glyph glyph-name="dotlessi" unicode="&#x131;" horiz-adv-x="257" 
d="M177 500v-500h-97v500h97z" />
    <glyph glyph-name="IJ" unicode="&#x132;" horiz-adv-x="815" 
d="M90 0v700h100v-700h-100zM625 85v615h100v-638l-116 -67h-193l-116 67v163h100v-140h225z" />
    <glyph glyph-name="ij" unicode="&#x133;" horiz-adv-x="514" 
d="M177 500v-500h-97v500h97zM75 623v107h107v-107h-107zM332 623v107h107v-107h-107zM434 500v-633l-116 -67h-101v87h120v613h97z" />
    <glyph glyph-name="Jcircumflex" unicode="&#x134;" horiz-adv-x="535" 
d="M345 85v615h100v-638l-116 -67h-193l-116 67v163h100v-140h225zM340 928h110l101 -138h-75l-81 80l-80 -80h-75z" />
    <glyph glyph-name="jcircumflex" unicode="&#x135;" horiz-adv-x="257" 
d="M177 500v-633l-116 -67h-101v87h120v613h97zM73 728h110l101 -138h-75l-81 80l-80 -80h-75z" />
    <glyph glyph-name="kcommaaccent" unicode="&#x137;" horiz-adv-x="531" 
d="M177 730v-479h2l206 249h116l-193 -226l223 -274h-119l-162 205l-73 -86v-119h-97v730h97zM230 -335v280h120v-34l-86 -246h-34z" />
    <glyph glyph-name="kgreenlandic" unicode="&#x138;" horiz-adv-x="531" 
d="M177 500v-249h2l206 249h116l-193 -226l223 -274h-119l-162 205l-73 -86v-119h-97v500h97z" />
    <glyph glyph-name="Ldotaccent" unicode="&#x13f;" horiz-adv-x="479" 
d="M90 0v700h100v-610h259v-90h-359zM284 232v120h120v-120h-120z" />
    <glyph glyph-name="ldot" unicode="&#x140;" horiz-adv-x="400" 
d="M196 0l-116 67v663h97v-643h120v-87h-101zM264 239v120h120v-120h-120z" />
    <glyph glyph-name="Lslash" unicode="&#x141;" horiz-adv-x="479" 
d="M20 291v74l70 15v320h100v-298l106 23v-74l-106 -23v-238h259v-90h-359v306z" />
    <glyph glyph-name="lslash" unicode="&#x142;" horiz-adv-x="317" 
d="M20 291v74l60 16v349h97v-322l100 27v-74l-100 -27v-247h120v-87h-101l-116 67v240z" />
    <glyph glyph-name="Nacute" unicode="&#x143;" horiz-adv-x="735" 
d="M190 529v-529h-100v700h91l362 -529h2v529h100v-700h-91l-362 529h-2zM310 790l94 128h130l-144 -128h-80z" />
    <glyph glyph-name="nacute" unicode="&#x144;" 
d="M505 438v-438h-97v418h-231v-418h-97v505h73l24 -41l71 41h141zM201 590l94 128h130l-144 -128h-80z" />
    <glyph glyph-name="OE" unicode="&#x152;" horiz-adv-x="964" 
d="M615 315v-225h299v-90h-708l-116 67v566l116 67h708v-90h-299v-205h239v-90h-239zM190 610v-520h325v520h-325z" />
    <glyph glyph-name="oe" unicode="&#x153;" horiz-adv-x="883" 
d="M803 87v-87h-279l-63 36l-72 -41h-193l-116 67v376l116 67h193l67 -39l68 39h163l116 -67v-222h-298v-129h298zM177 418v-336h231v336h-231zM505 418v-115h201v115h-201z" />
    <glyph glyph-name="Racute" unicode="&#x154;" horiz-adv-x="655" 
d="M341 279h-151v-279h-100v700h359l116 -67v-287l-116 -67l161 -279h-111zM190 610v-241h275v241h-275zM215 790l94 128h130l-144 -128h-80z" />
    <glyph glyph-name="Rcommaaccent" unicode="&#x156;" horiz-adv-x="655" 
d="M341 279h-151v-279h-100v700h359l116 -67v-287l-116 -67l161 -279h-111zM190 610v-241h275v241h-275zM272 -335v280h120v-34l-86 -246h-34z" />
    <glyph glyph-name="rcommaaccent" unicode="&#x157;" horiz-adv-x="389" 
d="M359 413h-182v-413h-97v500h73l24 -41l71 41h111v-87zM149 -335v280h120v-34l-86 -246h-34z" />
    <glyph glyph-name="Rcaron" unicode="&#x158;" horiz-adv-x="655" 
d="M341 279h-151v-279h-100v700h359l116 -67v-287l-116 -67l161 -279h-111zM190 610v-241h275v241h-275zM382 790h-110l-100 138h75l80 -80l81 80h75z" />
    <glyph glyph-name="rcaron" unicode="&#x159;" horiz-adv-x="389" 
d="M359 413h-182v-413h-97v500h73l24 -41l71 41h111v-87zM249 590h-110l-100 138h75l80 -80l81 80h75z" />
    <glyph glyph-name="Scaron" unicode="&#x160;" horiz-adv-x="645" 
d="M90 370v268l116 67h233l116 -67v-103h-100v80h-265v-212h249l116 -67v-274l-116 -67h-243l-116 67v103h100v-80h275v218h-249zM380 780h-110l-100 138h75l80 -80l81 80h75z" />
    <glyph glyph-name="scaron" unicode="&#x161;" horiz-adv-x="536" 
d="M456 230v-163l-116 -67h-260v87h279v123h-163l-116 67v156l116 67h250v-87h-269v-116h163zM323 590h-110l-100 138h75l80 -80l81 80h75z" />
    <glyph glyph-name="Ydieresis" unicode="&#x178;" horiz-adv-x="611" 
d="M255 0v309l-235 391h112l172 -298h2l173 298h112l-236 -392v-308h-100zM143 785v105h105v-105h-105zM362 785v105h105v-105h-105z" />
    <glyph glyph-name="Zcaron" unicode="&#x17d;" 
d="M70 610v90h455v-60l-345 -548v-2h345v-90h-475v60l345 548v2h-325zM344 780h-110l-100 138h75l80 -80l81 80h75z" />
    <glyph glyph-name="zcaron" unicode="&#x17e;" horiz-adv-x="466" 
d="M40 66l252 345v2h-242v87h366v-66l-252 -345v-2h252v-87h-376v66zM280 590h-110l-100 138h75l80 -80l81 80h75z" />
    <glyph glyph-name="florin" unicode="&#x192;" horiz-adv-x="389" 
d="M229 413v-546l-116 -67h-101v87h120v526h-92v87h92v163l116 67h101v-87h-120v-143h120v-87h-120z" />
    <glyph glyph-name="circumflex" unicode="&#x2c6;" horiz-adv-x="531" 
d="M210 728h110l101 -138h-75l-81 80l-80 -80h-75z" />
    <glyph glyph-name="caron" unicode="&#x2c7;" horiz-adv-x="531" 
d="M320 590h-110l-100 138h75l80 -80l81 80h75z" />
    <glyph glyph-name="breve" unicode="&#x2d8;" horiz-adv-x="529" 
d="M332 736h75v-109l-82 -47h-121l-82 47v109h75v-91h135v91z" />
    <glyph glyph-name="dotaccent" unicode="&#x2d9;" horiz-adv-x="350" 
d="M100 591v150h150v-150h-150z" />
    <glyph glyph-name="ring" unicode="&#x2da;" horiz-adv-x="529" 
d="M407 617l-82 -47h-121l-82 47v169l82 47h121l82 -47v-169zM197 768v-133h135v133h-135z" />
    <glyph glyph-name="ogonek" unicode="&#x2db;" horiz-adv-x="520" 
d="M247 0v-131h93v-67h-44l-116 67v131h67z" />
    <glyph glyph-name="tilde" unicode="&#x2dc;" horiz-adv-x="506" 
d="M170 667h-2v-82h-68v94l94 55l142 -82h2v82h68v-94l-94 -55z" />
    <glyph glyph-name="hungarumlaut" unicode="&#x2dd;" horiz-adv-x="500" 
d="M245 590l94 128h130l-144 -128h-80zM66 590l94 128h130l-144 -128h-80z" />
    <glyph glyph-name="endash" unicode="&#x2013;" horiz-adv-x="696" 
d="M70 218v87h556v-87h-556z" />
    <glyph glyph-name="emdash" unicode="&#x2014;" horiz-adv-x="974" 
d="M70 218v87h834v-87h-834z" />
    <glyph glyph-name="quoteleft" unicode="&#x2018;" horiz-adv-x="330" 
d="M240 730v-350h-150v42l108 308h42z" />
    <glyph glyph-name="quoteright" unicode="&#x2019;" horiz-adv-x="330" 
d="M90 380v350h150v-42l-108 -308h-42z" />
    <glyph glyph-name="quotesinglbase" unicode="&#x201a;" horiz-adv-x="350" 
d="M100 -200v350h150v-42l-108 -308h-42z" />
    <glyph glyph-name="quotedblleft" unicode="&#x201c;" horiz-adv-x="570" 
d="M480 730v-350h-150v42l108 308h42zM240 730v-350h-150v42l108 308h42z" />
    <glyph glyph-name="quotedblright" unicode="&#x201d;" horiz-adv-x="570" 
d="M90 380v350h150v-42l-108 -308h-42zM330 380v350h150v-42l-108 -308h-42z" />
    <glyph glyph-name="quotedblbase" unicode="&#x201e;" horiz-adv-x="590" 
d="M100 -200v350h150v-42l-108 -308h-42zM340 -200v350h150v-42l-108 -308h-42z" />
    <glyph glyph-name="dagger" unicode="&#x2020;" horiz-adv-x="583" 
d="M324 444l10 -644h-85l10 644l-199 -10v85l199 -10l-10 222h85l-10 -222l199 10v-85z" />
    <glyph glyph-name="daggerdbl" unicode="&#x2021;" horiz-adv-x="583" 
d="M331 266l-7 -179l199 10v-85l-199 10l10 -222h-85l10 222l-199 -10v85l199 -10l-7 179l7 178l-199 -10v85l199 -10l-10 222h85l-10 -222l199 10v-85l-199 10z" />
    <glyph glyph-name="bullet" unicode="&#x2022;" horiz-adv-x="580" 
d="M480 224l-116 -67h-148l-116 67v246l116 67h148l116 -67v-246z" />
    <glyph glyph-name="ellipsis" unicode="&#x2026;" horiz-adv-x="970" 
d="M100 0v150h150v-150h-150zM410 0v150h150v-150h-150zM720 0v150h150v-150h-150z" />
    <glyph glyph-name="perthousand" unicode="&#x2030;" horiz-adv-x="1396" 
d="M707 710h90l-513 -720h-90zM425 424l-116 -67h-113l-116 67v219l116 67h113l116 -67v-219zM171 629v-191h163v191h-163zM566 276l116 67h113l116 -67v-219l-116 -67h-113l-116 67v219zM820 71v191h-163v-191h163zM1001 276l116 67h113l116 -67v-219l-116 -67h-113
l-116 67v219zM1255 71v191h-163v-191h163z" />
    <glyph glyph-name="guilsinglleft" unicode="&#x2039;" horiz-adv-x="430" 
d="M340 107v-107l-250 200v102l250 200v-107l-183 -143v-1z" />
    <glyph glyph-name="guilsinglright" unicode="&#x203a;" horiz-adv-x="430" 
d="M90 0v107l183 144v1l-183 143v107l250 -200v-102z" />
    <glyph glyph-name="fraction" unicode="&#x2044;" horiz-adv-x="663" 
d="M563 710h90l-553 -720h-90z" />
    <glyph glyph-name="Euro" unicode="&#x20ac;" horiz-adv-x="674" 
d="M458 461l-43 -74h-208v-74h166l-43 -74h-123v-154h287v90h100v-113l-116 -67h-255l-116 67v177h-77v74h77v74h-77v74h77v177l116 67h255l116 -67v-113h-100v90h-287v-154h251z" />
    <glyph glyph-name="trademark" unicode="&#x2122;" horiz-adv-x="845" 
d="M689 340v243h-2l-84 -243h-61l-82 243h-2v-243h-66v360h85l96 -265h2l95 265h85v-360h-66zM235 637v-297h-68v297h-97v63h261v-63h-96z" />
    <glyph glyph-name="partialdiff" unicode="&#x2202;" horiz-adv-x="635" 
d="M445 615h-239v90h223l116 -67v-576l-116 -67h-223l-116 67v301l116 67h168l71 -41v226zM445 85v255h-255v-255h255z" />
    <glyph glyph-name="minus" unicode="&#x2212;" horiz-adv-x="600" 
d="M550 297v-94h-500v94h500z" />
    <glyph glyph-name="infinity" unicode="&#x221e;" horiz-adv-x="890" 
d="M190 428v-235h205v235h-205zM495 428v-235h205v235h-205zM800 170l-116 -67h-123l-116 67l-116 -67h-123l-116 67v281l116 67h123l116 -67l116 67h123l116 -67v-281z" />
    <glyph glyph-name="approxequal" unicode="&#x2248;" horiz-adv-x="722" 
d="M272 371h-95v-82h-87v102l116 67h103l141 -82h95v82h87v-102l-116 -67h-103zM272 133h-95v-82h-87v102l116 67h103l141 -82h95v82h87v-102l-116 -67h-103z" />
    <glyph glyph-name="notequal" unicode="&#x2260;" horiz-adv-x="680" 
d="M590 411v-94h-153l-105 -134h258v-94h-332l-78 -100h-90l78 100h-78v94h152l105 134h-257v94h331l79 100h90l-79 -100h79z" />
    <glyph glyph-name="lessequal" unicode="&#x2264;" horiz-adv-x="680" 
d="M590 501v-91l-364 -89v-2l364 -89v-91l-500 130v102zM590 94v-94h-500v94h500z" />
    <glyph glyph-name="greaterequal" unicode="&#x2265;" horiz-adv-x="680" 
d="M90 410v91l500 -130v-102l-500 -130v91l364 89v2zM90 0v94h500v-94h-500z" />
    <glyph glyph-name="a.alt" unicode="&#xe001;" horiz-adv-x="575" 
d="M177 418v-336h221v336h-221zM495 505v-510h-26l-71 41l-71 -41h-131l-116 67v376l116 67h131l71 -41l71 41h26z" />
    <glyph glyph-name="g.alt" unicode="&#xe002;" 
d="M479 505h26v-638l-116 -67h-259v87h278v165l-71 -41h-141l-116 67v360l116 67h141l71 -41zM177 98h231v320h-231v-320z" />
    <glyph glyph-name="l.alt" unicode="&#xe003;" horiz-adv-x="257" 
d="M177 0h-97v730h97v-730z" />
    <glyph glyph-name="dotlessj" unicode="&#xf6be;" horiz-adv-x="257" 
d="M177 500v-633l-116 -67h-101v87h120v613h97z" />
    <glyph glyph-name="commaaccent" unicode="&#xf6c3;" horiz-adv-x="320" 
d="M100 -335v280h120v-34l-86 -246h-34z" />
    <glyph glyph-name="madslug" unicode="&#xf800;" horiz-adv-x="896" 
d="M650 51c-64 -40 -131.668 -60.001 -203.001 -60.001c-101.333 0 -187.833 36 -259.5 108s-107.5 159.333 -107.5 262c0 64.667 14.5 122.5 43.5 173.5s59.5 76.5 91.5 76.5s48 -17 48 -51c0 -22 -9.83301 -76.333 -29.5 -163s-29.5 -130.667 -29.5 -132
c0 -7.33301 6 -11 18 -11s30.833 3 56.5 9s39.834 11.667 42.501 17c0 1.33301 5 24 15 68l24 108c13.333 67.333 20 112.833 20 136.5s-10.667 42.334 -32 56.001s-48.333 20.5 -81 20.5l-19 -2l-2 3c62.667 40 129.667 60 201 60c102.667 0 189.834 -36 261.501 -108
s107.5 -159.333 107.5 -262c0 -64.667 -14.5 -122.5 -43.5 -173.5s-59.5 -76.5 -91.5 -76.5s-48 17 -48 51c0 22 9.83301 76.333 29.5 163s29.5 130.334 29.5 131.001c0 8 -6 12 -18 12s-30.833 -3 -56.5 -9s-39.834 -11.667 -42.501 -17c0 -1.33301 -5 -24 -15 -68
l-24 -108c-13.333 -67.333 -20 -112.833 -20 -136.5s10.667 -42.334 32 -56.001s48.333 -20.5 81 -20.5l19 1zM475.999 233.999c8.66699 35.333 20.3359 87.501 35.0029 156.501s22 106.333 22 112s-5.83301 8.5 -17.5 8.5s-28.334 -2.33301 -50.001 -7
s-36.834 -10.334 -45.501 -17.001c-8.66699 -35.333 -20.334 -87.5 -35.001 -156.5s-22 -106.5 -22 -112.5s5.66699 -9 17 -9s28 2.5 50 7.5s37.333 10.833 46 17.5z" />
    <glyph glyph-name="apple" unicode="&#xf8ff;" horiz-adv-x="858" 
d="M279 618c23.333 0 52.667 -4.99805 88 -14.998s59.166 -15 71.499 -15s35.5 5.66699 69.5 17s63 17 87 17c40 0 75.667 -10.667 107 -32c20 -15.333 37.333 -32 52 -50c-26 -22.667 -45 -42.667 -57 -60c-22 -30.667 -33 -66 -33 -106s11.333 -76.333 34 -109
s49.334 -53.667 80.001 -63c-14 -42.667 -34.667 -84.334 -62 -125.001c-43.333 -65.333 -86.333 -98 -129 -98c-17.333 0 -40.333 5.33301 -69 16s-53.5 16 -74.5 16s-45.5 -5.66699 -73.5 -17s-50 -17 -66 -17c-51.333 0 -101.333 43.333 -150 130
c-49.333 85.333 -74 167.666 -74 246.999s18.667 143.333 56 192c38 48 85.667 72 143 72zM589.001 790.002c0 -51.333 -20.333 -97.333 -61 -138c-18 -18 -34.667 -29.333 -50 -34s-34 -8 -56 -10c1.33301 110 56 177.667 164 203c2 -6 3 -13 3 -21z" />
    <glyph glyph-name="fi" unicode="&#xfb01;" horiz-adv-x="636" 
d="M40 413v87h92v163l116 67h313v-87h-332v-143h140v-87h-140v-413h-97v413h-92zM556 500v-500h-97v500h97z" />
    <glyph glyph-name="fl" unicode="&#xfb02;" horiz-adv-x="706" 
d="M585 0l-116 67v576h-240v-143h150v-87h-150v-413h-97v413h-92v87h92v163l116 67h318v-643h120v-87h-101z" />
    <glyph glyph-name="ffi" unicode="&#xfb03;" horiz-adv-x="1035" 
d="M229 413v-413h-97v413h-92v87h92v163l116 67h141v-87h-160v-143h272v163l116 67h343v-87h-362v-143h160v-87h-160v-413h-97v413h-272zM955 500v-500h-97v500h97z" />
    <glyph glyph-name="ffl" unicode="&#xfb04;" horiz-adv-x="1095" 
d="M40 413v87h92v163l116 67h171v-87h-190v-143h292v163l116 67h318v-643h120v-87h-101l-116 67v576h-240v-143h150v-87h-150v-413h-97v413h-292v-413h-97v413h-92z" />
    <glyph glyph-name="st" unicode="&#xfb06;" horiz-adv-x="909" 
d="M177 413v-116h163l116 -67v-163l-116 -67h-260v87h279v123h-163l-116 67v156l116 67h436v84l97 56v-140h120v-87h-120v-326h120v-87h-101l-116 67v346h-455z" />
    <glyph glyph-name="fj" unicode="&#xfb07;" horiz-adv-x="636" 
d="M40 413v87h92v163l116 67h313v-87h-332v-143h120v-87h-120v-413h-97v413h-92zM556 500v-633l-116 -67h-101v87h120v613h97z" />
    <glyph glyph-name="ct" unicode="&#xfb08;" horiz-adv-x="889" 
d="M177 413v-326h278v-87h-259l-116 67v366l116 67h396v84l97 56v-140h120v-87h-120v-326h120v-87h-101l-116 67v346h-415z" />
    <glyph glyph-name=".null" horiz-adv-x="0" 
 />
    <glyph glyph-name="nonmarkingreturn" horiz-adv-x="333" 
 />
    <glyph glyph-name="grave.cap" horiz-adv-x="500" 
d="M315 918l94 -128h-80l-144 128h130z" />
    <glyph glyph-name="acute.cap" horiz-adv-x="500" 
d="M185 790l94 128h130l-144 -128h-80z" />
    <glyph glyph-name="caron.cap" horiz-adv-x="531" 
d="M320 790h-110l-100 138h75l80 -80l81 80h75z" />
    <glyph glyph-name="circumflex.cap" horiz-adv-x="531" 
d="M210 928h110l101 -138h-75l-81 80l-80 -80h-75z" />
    <glyph glyph-name="ring.cap" horiz-adv-x="529" 
d="M407 817l-82 -47h-121l-82 47v169l82 47h121l82 -47v-169zM197 968v-133h135v133h-135z" />
    <glyph glyph-name="dieresis.cap" horiz-adv-x="544" 
d="M110 795v105h105v-105h-105zM329 795v105h105v-105h-105z" />
    <glyph glyph-name="tilde.cap" horiz-adv-x="506" 
d="M170 867h-2v-82h-68v94l94 55l142 -82h2v82h68v-94l-94 -55z" />
    </font>
</defs>
</svg>
